# xmcd
#
# Track frame offsets:
#   150
#   13922
#   25670
#   42495
#   58817
#   72467
#   87082
#   105325
#   121447
#   145577
#   161212
#   182287
#   196547
#   216360
#   229292
#   248402
#   267007
#   281835
#   299680
#   312145
#
# Disc length: 4326 seconds
#
# Revision: 0
# Processed by: cddbd v1.5PL3 Copyright (c) Steve Scherf et al.
# Submitted via: Media_Universe 3.0
#
DISCID=2010e414
DTITLE=The Three Degrees - 20 Greatest Hits
DYEAR=1980
DGENRE=R and B
TTITLE0=When Will i See you Again
TTITLE1=Can't you See What You're Doing to Me
TTITLE2=Toast of Love
TTITLE3=We're all Alone
TTITLE4=Long Lost Lover
TTITLE5=Get Your Love Back
TTITLE6=I Like Being a Woman
TTITLE7=What i Did For Love( de A Chorus Line)
TTITLE8=Standing up For Love
TTITLE9=Take Good Care of Yourself
TTITLE10=Dirty ol' Man
TTITLE11=Loving Cup
TTITLE12=A Woman Needs a Good Man
TTITLE13=T.S.O.P. (The Sound Of Philadelphia)
TTITLE14=Another Heartache
TTITLE15=Distant Lover
TTITLE16=Together
TTITLE17=Here i Am
TTITLE18=Year of Decision
TTITLE19=Love Train (live)
EXTD=
EXTT0=
EXTT1=
EXTT2=
EXTT3=
EXTT4=
EXTT5=
EXTT6=
EXTT7=
EXTT8=
EXTT9=
EXTT10=
EXTT11=
EXTT12=
EXTT13=
EXTT14=
EXTT15=
EXTT16=
EXTT17=
EXTT18=
EXTT19=
PLAYORDER=
